<svg xmlns="http://www.w3.org/2000/svg" viewBox="0 0 800 600" font-family="'Courier New', monospace">
  <defs>
    <filter id="glow">
      <feGaussianBlur stdDeviation="2" result="blur"/>
      <feMerge><feMergeNode in="blur"/><feMergeNode in="SourceGraphic"/></feMerge>
    </filter>
    <linearGradient id="headerGrad" x1="0" y1="0" x2="1" y2="0">
      <stop offset="0%" stop-color="#a855f7"/>
      <stop offset="50%" stop-color="#00ffff"/>
      <stop offset="100%" stop-color="#00ff41"/>
    </linearGradient>
    <linearGradient id="scoreGrad" x1="0" y1="1" x2="0" y2="0">
      <stop offset="0%" stop-color="#00ff41" stop-opacity="0.3"/>
      <stop offset="100%" stop-color="#00ff41" stop-opacity="0.05"/>
    </linearGradient>
    <linearGradient id="revenueGrad" x1="0" y1="1" x2="0" y2="0">
      <stop offset="0%" stop-color="#f5a623" stop-opacity="0.3"/>
      <stop offset="100%" stop-color="#f5a623" stop-opacity="0.05"/>
    </linearGradient>
  </defs>

  <!-- Background -->
  <rect width="800" height="600" fill="#0a0a14"/>

  <!-- Retro grid background -->
  <g opacity="0.05" stroke="#a855f7" stroke-width="0.5">
    <line x1="0" y1="100" x2="800" y2="100"/><line x1="0" y1="200" x2="800" y2="200"/>
    <line x1="0" y1="300" x2="800" y2="300"/><line x1="0" y1="400" x2="800" y2="400"/>
    <line x1="0" y1="500" x2="800" y2="500"/>
    <line x1="100" y1="0" x2="100" y2="600"/><line x1="200" y1="0" x2="200" y2="600"/>
    <line x1="300" y1="0" x2="300" y2="600"/><line x1="400" y1="0" x2="400" y2="600"/>
    <line x1="500" y1="0" x2="500" y2="600"/><line x1="600" y1="0" x2="600" y2="600"/>
    <line x1="700" y1="0" x2="700" y2="600"/>
  </g>

  <!-- Header bar -->
  <rect x="0" y="0" width="800" height="48" fill="#0d1117" stroke="#333" stroke-width="0.5" stroke-opacity="0.5"/>
  <text x="20" y="20" fill="#a855f7" font-size="12" font-weight="bold" filter="url(#glow)">ORION</text>
  <text x="70" y="20" fill="#888" font-size="10">Mission Control</text>

  <!-- Nav tabs -->
  <g font-size="9" fill="#666">
    <text x="300" y="20" fill="#00ffff">Dashboard</text>
    <text x="380" y="20">Pipeline</text>
    <text x="450" y="20">Targets</text>
    <text x="510" y="20">Reports</text>
    <text x="570" y="20">Settings</text>
  </g>

  <!-- User area -->
  <text x="720" y="20" fill="#888" font-size="9">admin</text>
  <circle cx="760" cy="17" r="8" fill="#1a1a2e" stroke="#a855f7" stroke-width="1"/>
  <text x="760" y="21" text-anchor="middle" fill="#a855f7" font-size="8">A</text>

  <!-- Edit mode toggle -->
  <rect x="700" y="55" width="85" height="24" rx="12" fill="#1a1a2e" stroke="#00ff41" stroke-width="1"/>
  <circle cx="732" cy="67" r="6" fill="#00ff41"/>
  <text x="760" y="71" fill="#00ff41" font-size="8">EDIT</text>

  <!-- Widget Grid Row 1 -->
  <!-- Widget: Health Score -->
  <rect x="20" y="90" width="185" height="120" rx="8" fill="#0d1117" stroke="#333" stroke-width="1"/>
  <rect x="20" y="90" width="185" height="28" rx="8" fill="#1a1a2e"/>
  <rect x="20" y="110" width="185" height="8" fill="#1a1a2e"/>
  <text x="30" y="108" fill="#888" font-size="9">Health Score</text>
  <circle cx="112" cy="140" r="30" fill="none" stroke="#333" stroke-width="4"/>
  <circle cx="112" cy="140" r="30" fill="none" stroke="#00ff41" stroke-width="4" stroke-dasharray="176" stroke-dashoffset="18" transform="rotate(-90 112 140)"/>
  <text x="112" y="145" text-anchor="middle" fill="#00ff41" font-size="18" font-weight="bold" filter="url(#glow)">98</text>
  <text x="112" y="158" text-anchor="middle" fill="#666" font-size="7">/100</text>
  <text x="112" y="200" text-anchor="middle" fill="#00ff41" font-size="8">All systems operational</text>

  <!-- Widget: Scheduler Status -->
  <rect x="215" y="90" width="185" height="120" rx="8" fill="#0d1117" stroke="#333" stroke-width="1"/>
  <rect x="215" y="90" width="185" height="28" rx="8" fill="#1a1a2e"/>
  <rect x="215" y="110" width="185" height="8" fill="#1a1a2e"/>
  <text x="225" y="108" fill="#888" font-size="9">Scheduler</text>
  <g font-size="8">
    <circle cx="230" cy="132" r="3" fill="#00ff41"/>
    <text x="240" y="135" fill="#888">Pipeline</text>
    <text x="380" y="135" fill="#00ff41">Running</text>

    <circle cx="230" cy="150" r="3" fill="#00ff41"/>
    <text x="240" y="153" fill="#888">Backup</text>
    <text x="380" y="153" fill="#666">Next: 2h</text>

    <circle cx="230" cy="168" r="3" fill="#f5a623"/>
    <text x="240" y="171" fill="#888">Discovery</text>
    <text x="380" y="171" fill="#f5a623">Queue: 3</text>

    <circle cx="230" cy="186" r="3" fill="#00ff41"/>
    <text x="240" y="189" fill="#888">Health Check</text>
    <text x="380" y="189" fill="#00ff41">12m ago</text>
  </g>

  <!-- Widget: Findings Summary -->
  <rect x="410" y="90" width="185" height="120" rx="8" fill="#0d1117" stroke="#333" stroke-width="1"/>
  <rect x="410" y="90" width="185" height="28" rx="8" fill="#1a1a2e"/>
  <rect x="410" y="110" width="185" height="8" fill="#1a1a2e"/>
  <text x="420" y="108" fill="#888" font-size="9">Findings</text>
  <g font-size="9">
    <text x="430" y="140" fill="#ff3366" font-size="14" font-weight="bold">7</text>
    <text x="450" y="140" fill="#888" font-size="8">confirmed</text>

    <text x="430" y="160" fill="#f5a623" font-size="14" font-weight="bold">12</text>
    <text x="450" y="160" fill="#888" font-size="8">pending</text>

    <text x="430" y="180" fill="#00ff41" font-size="14" font-weight="bold">3</text>
    <text x="450" y="180" fill="#888" font-size="8">submitted</text>

    <text x="430" y="200" fill="#a855f7" font-size="14" font-weight="bold">22</text>
    <text x="450" y="200" fill="#888" font-size="8">total</text>
  </g>

  <!-- Widget: Revenue Overview -->
  <rect x="605" y="90" width="175" height="120" rx="8" fill="#0d1117" stroke="#333" stroke-width="1"/>
  <rect x="605" y="90" width="175" height="28" rx="8" fill="#1a1a2e"/>
  <rect x="605" y="110" width="175" height="8" fill="#1a1a2e"/>
  <text x="615" y="108" fill="#888" font-size="9">Revenue</text>
  <text x="692" y="150" text-anchor="middle" fill="#f5a623" font-size="20" font-weight="bold" filter="url(#glow)">$2,450</text>
  <text x="692" y="165" text-anchor="middle" fill="#888" font-size="8">this month</text>
  <!-- Mini bar chart -->
  <g fill="#f5a623" opacity="0.6">
    <rect x="625" y="185" width="12" height="20" rx="2" opacity="0.3"/>
    <rect x="643" y="178" width="12" height="27" rx="2" opacity="0.4"/>
    <rect x="661" y="172" width="12" height="33" rx="2" opacity="0.5"/>
    <rect x="679" y="165" width="12" height="40" rx="2" opacity="0.6"/>
    <rect x="697" y="170" width="12" height="35" rx="2" opacity="0.7"/>
    <rect x="715" y="158" width="12" height="47" rx="2" opacity="0.8"/>
    <rect x="733" y="155" width="12" height="50" rx="2"/>
  </g>
  <text x="625" y="207" fill="#666" font-size="6">Jan</text>
  <text x="735" y="207" fill="#666" font-size="6">Now</text>

  <!-- Widget Grid Row 2 -->
  <!-- Widget: Active Targets -->
  <rect x="20" y="220" width="185" height="130" rx="8" fill="#0d1117" stroke="#333" stroke-width="1"/>
  <rect x="20" y="220" width="185" height="28" rx="8" fill="#1a1a2e"/>
  <rect x="20" y="240" width="185" height="8" fill="#1a1a2e"/>
  <text x="30" y="238" fill="#888" font-size="9">Active Targets</text>
  <g font-size="8">
    <rect x="30" y="258" width="165" height="22" rx="3" fill="#1a1a2e"/>
    <text x="40" y="273" fill="#00ffff">example.com</text>
    <text x="185" y="273" fill="#00ff41" text-anchor="end">Active</text>

    <rect x="30" y="286" width="165" height="22" rx="3" fill="#1a1a2e"/>
    <text x="40" y="301" fill="#00ffff">api.target.io</text>
    <text x="185" y="301" fill="#f5a623" text-anchor="end">Scanning</text>

    <rect x="30" y="314" width="165" height="22" rx="3" fill="#1a1a2e"/>
    <text x="40" y="329" fill="#00ffff">beta.service.co</text>
    <text x="185" y="329" fill="#00ff41" text-anchor="end">Active</text>

    <text x="30" y="348" fill="#666" font-size="7">+5 more targets</text>
  </g>

  <!-- Widget: Knowledge Graph -->
  <rect x="215" y="220" width="185" height="130" rx="8" fill="#0d1117" stroke="#333" stroke-width="1"/>
  <rect x="215" y="220" width="185" height="28" rx="8" fill="#1a1a2e"/>
  <rect x="215" y="240" width="185" height="8" fill="#1a1a2e"/>
  <text x="225" y="238" fill="#888" font-size="9">Knowledge Graph</text>
  <!-- Mini node visualization -->
  <g>
    <circle cx="307" cy="290" r="12" fill="#1a1a2e" stroke="#a855f7" stroke-width="1.5"/>
    <text x="307" y="294" text-anchor="middle" fill="#a855f7" font-size="7">Core</text>

    <circle cx="270" cy="270" r="7" fill="#1a1a2e" stroke="#00ffff" stroke-width="1"/>
    <circle cx="340" cy="272" r="7" fill="#1a1a2e" stroke="#00ffff" stroke-width="1"/>
    <circle cx="275" cy="310" r="7" fill="#1a1a2e" stroke="#00ff41" stroke-width="1"/>
    <circle cx="342" cy="308" r="7" fill="#1a1a2e" stroke="#f5a623" stroke-width="1"/>
    <circle cx="307" cy="320" r="7" fill="#1a1a2e" stroke="#ff3366" stroke-width="1"/>

    <line x1="295" y1="284" x2="277" y2="273" stroke="#a855f7" stroke-width="0.5" opacity="0.5"/>
    <line x1="319" y1="284" x2="333" y2="275" stroke="#a855f7" stroke-width="0.5" opacity="0.5"/>
    <line x1="297" y1="298" x2="280" y2="306" stroke="#a855f7" stroke-width="0.5" opacity="0.5"/>
    <line x1="317" y1="298" x2="336" y2="304" stroke="#a855f7" stroke-width="0.5" opacity="0.5"/>
    <line x1="307" y1="302" x2="307" y2="313" stroke="#a855f7" stroke-width="0.5" opacity="0.5"/>
  </g>
  <text x="307" y="346" text-anchor="middle" fill="#888" font-size="8">142 nodes · 287 edges</text>

  <!-- Widget: Pipeline Progress -->
  <rect x="410" y="220" width="185" height="130" rx="8" fill="#0d1117" stroke="#333" stroke-width="1"/>
  <rect x="410" y="220" width="185" height="28" rx="8" fill="#1a1a2e"/>
  <rect x="410" y="240" width="185" height="8" fill="#1a1a2e"/>
  <text x="420" y="238" fill="#888" font-size="9">Pipeline Status</text>
  <g font-size="7">
    <text x="425" y="262" fill="#00ff41">DISCOVER</text>
    <rect x="490" y="255" width="95" height="8" rx="4" fill="#1a1a2e"/>
    <rect x="490" y="255" width="95" height="8" rx="4" fill="#00ff41" opacity="0.8"/>

    <text x="425" y="280" fill="#00ff41">RECON</text>
    <rect x="490" y="273" width="95" height="8" rx="4" fill="#1a1a2e"/>
    <rect x="490" y="273" width="80" height="8" rx="4" fill="#00ff41" opacity="0.8"/>

    <text x="425" y="298" fill="#f5a623">HYPOTHESIS</text>
    <rect x="490" y="291" width="95" height="8" rx="4" fill="#1a1a2e"/>
    <rect x="490" y="291" width="45" height="8" rx="4" fill="#f5a623" opacity="0.8"/>

    <text x="425" y="316" fill="#666">VALIDATE</text>
    <rect x="490" y="309" width="95" height="8" rx="4" fill="#1a1a2e"/>
    <rect x="490" y="309" width="10" height="8" rx="4" fill="#666" opacity="0.5"/>

    <text x="425" y="334" fill="#666">REPORT</text>
    <rect x="490" y="327" width="95" height="8" rx="4" fill="#1a1a2e"/>

    <text x="425" y="348" fill="#666">SUBMISSION</text>
    <rect x="490" y="341" width="95" height="8" rx="4" fill="#1a1a2e"/>
  </g>

  <!-- Widget: Recent Activity -->
  <rect x="605" y="220" width="175" height="130" rx="8" fill="#0d1117" stroke="#333" stroke-width="1"/>
  <rect x="605" y="220" width="175" height="28" rx="8" fill="#1a1a2e"/>
  <rect x="605" y="240" width="175" height="8" fill="#1a1a2e"/>
  <text x="615" y="238" fill="#888" font-size="9">Recent Activity</text>
  <g font-size="7" fill="#888">
    <text x="615" y="262" fill="#00ff41">08:32</text>
    <text x="650" y="262">Backup completed (88MB)</text>

    <text x="615" y="278" fill="#a855f7">08:15</text>
    <text x="650" y="278">Discovery: 3 new targets</text>

    <text x="615" y="294" fill="#f5a623">07:50</text>
    <text x="650" y="294">Hypothesis: IDOR on /api/</text>

    <text x="615" y="310" fill="#00ffff">07:30</text>
    <text x="650" y="310">Recon: 47 endpoints found</text>

    <text x="615" y="326" fill="#00ff41">07:00</text>
    <text x="650" y="326">Health check: 98/100</text>

    <text x="615" y="342" fill="#666">06:30</text>
    <text x="650" y="342">ORION Score updated: 0.87</text>
  </g>

  <!-- Widget: ORION Score History -->
  <rect x="20" y="360" width="250" height="110" rx="8" fill="#0d1117" stroke="#333" stroke-width="1"/>
  <rect x="20" y="360" width="250" height="28" rx="8" fill="#1a1a2e"/>
  <rect x="20" y="380" width="250" height="8" fill="#1a1a2e"/>
  <text x="30" y="378" fill="#888" font-size="9">ORION Score — Last 7 Days</text>
  <!-- Line chart -->
  <polyline points="40,430 70,425 100,420 130,418 160,410 190,405 220,400 250,395"
    fill="none" stroke="#a855f7" stroke-width="1.5" filter="url(#glow)"/>
  <g fill="#a855f7" opacity="0.3">
    <polygon points="40,430 70,425 100,420 130,418 160,410 190,405 220,400 250,395 250,450 40,450"/>
  </g>
  <g font-size="6" fill="#666">
    <text x="40" y="458">Mon</text><text x="70" y="458">Tue</text><text x="100" y="458">Wed</text>
    <text x="130" y="458">Thu</text><text x="160" y="458">Fri</text><text x="190" y="458">Sat</text>
    <text x="220" y="458">Sun</text>
  </g>
  <text x="250" y="398" fill="#a855f7" font-size="10" font-weight="bold">0.87</text>

  <!-- Widget: Add Widget -->
  <rect x="280" y="360" width="120" height="110" rx="8" fill="#0d1117" stroke="#333" stroke-width="1" stroke-dasharray="5,5"/>
  <text x="340" y="410" text-anchor="middle" fill="#444" font-size="28">+</text>
  <text x="340" y="430" text-anchor="middle" fill="#444" font-size="9">Add Widget</text>

  <!-- Widget: COPILOT Status -->
  <rect x="410" y="360" width="185" height="110" rx="8" fill="#0d1117" stroke="#333" stroke-width="1"/>
  <rect x="410" y="360" width="185" height="28" rx="8" fill="#1a1a2e"/>
  <rect x="410" y="380" width="185" height="8" fill="#1a1a2e"/>
  <text x="420" y="378" fill="#888" font-size="9">COPILOT</text>
  <g font-size="8">
    <text x="425" y="405" fill="#a855f7">Authority:</text>
    <text x="500" y="405" fill="#00ff41">Senior Hunter</text>

    <text x="425" y="422" fill="#a855f7">Decisions today:</text>
    <text x="545" y="422" fill="#00ffff">14</text>

    <text x="425" y="439" fill="#a855f7">Confidence:</text>
    <text x="510" y="439" fill="#00ff41">High (87%)</text>

    <text x="425" y="456" fill="#a855f7">Pending approvals:</text>
    <text x="545" y="456" fill="#f5a623">2</text>
  </g>

  <!-- Widget: Integrations -->
  <rect x="605" y="360" width="175" height="110" rx="8" fill="#0d1117" stroke="#333" stroke-width="1"/>
  <rect x="605" y="360" width="175" height="28" rx="8" fill="#1a1a2e"/>
  <rect x="605" y="380" width="175" height="8" fill="#1a1a2e"/>
  <text x="615" y="378" fill="#888" font-size="9">Integrations</text>
  <g font-size="7">
    <circle cx="620" cy="400" r="3" fill="#00ff41"/>
    <text x="630" y="403" fill="#888">HackerOne</text>

    <circle cx="620" cy="416" r="3" fill="#00ff41"/>
    <text x="630" y="419" fill="#888">Bugcrowd</text>

    <circle cx="620" cy="432" r="3" fill="#f5a623"/>
    <text x="630" y="435" fill="#888">Shodan</text>

    <circle cx="620" cy="448" r="3" fill="#00ff41"/>
    <text x="630" y="451" fill="#888">CoinGecko</text>

    <circle cx="620" cy="464" r="3" fill="#ff3366"/>
    <text x="630" y="467" fill="#888">ARCA (error)</text>
  </g>

  <!-- Status bar -->
  <rect x="0" y="500" width="800" height="22" fill="#0d1117" stroke="#333" stroke-width="0.5" stroke-opacity="0.5"/>
  <text x="20" y="515" fill="#666" font-size="8">v4.6.0 · Uptime: 14d 7h · DB: 6 WAL · Memory: 128MB</text>
  <text x="600" y="515" fill="#666" font-size="8">Last sync: 2m ago · Pipeline: Running</text>
  <circle cx="780" cy="511" r="4" fill="#00ff41"/>
  <text x="770" y="515" fill="#00ff41" font-size="8" text-anchor="end">ONLINE</text>

  <!-- Bottom legend -->
  <text x="400" y="555" text-anchor="middle" fill="#444" font-size="8">ORION Widget Dashboard · Drag-and-drop · Layout persistence · Retro-grid aesthetic</text>
</svg>